solid Mesh
  facet normal 0.707107 0 0.707107
    outer loop
      vertex -0.005 0 0
      vertex 0 0 -0.005
      vertex -0.005 0.1 0
    endloop
  endfacet
  facet normal 0.707107 0 0.707107
    outer loop
      vertex 0 0 -0.005
      vertex 0 0.1 -0.005
      vertex -0.005 0.1 0
    endloop
  endfacet
  facet normal 0.707107 0 0.707107
    outer loop
      vertex 0.005 0 -0.02
      vertex 0.005 0.1 -0.02
      vertex 0 0 -0.015
    endloop
  endfacet
  facet normal 0.707107 0 0.707107
    outer loop
      vertex 0.005 0.1 -0.02
      vertex 0 0.1 -0.015
      vertex 0 0 -0.015
    endloop
  endfacet
  facet normal -0.707107 0 0.707106
    outer loop
      vertex 0.105 0.1 0
      vertex 0.1 0.1 -0.005
      vertex 0.105 0 0
    endloop
  endfacet
  facet normal -0.707107 0 0.707106
    outer loop
      vertex 0.1 0.1 -0.005
      vertex 0.1 0 -0.005
      vertex 0.105 0 0
    endloop
  endfacet
  facet normal -0.707106 0 0.707107
    outer loop
      vertex 0.095 0.1 -0.02
      vertex 0.095 0 -0.02
      vertex 0.1 0.1 -0.015
    endloop
  endfacet
  facet normal -0.707106 0 0.707107
    outer loop
      vertex 0.095 0 -0.02
      vertex 0.1 0 -0.015
      vertex 0.1 0.1 -0.015
    endloop
  endfacet
  facet normal 1 0 0
    outer loop
      vertex 0 0.1 -0.015
      vertex 0 0.1 -0.005
      vertex 0 0 -0.015
    endloop
  endfacet
  facet normal 1 0 0
    outer loop
      vertex 0 0.1 -0.005
      vertex 0 0 -0.005
      vertex 0 0 -0.015
    endloop
  endfacet
  facet normal 0 0 1
    outer loop
      vertex 0.095 0.1 -0.02
      vertex 0.005 0.1 -0.02
      vertex 0.095 0 -0.02
    endloop
  endfacet
  facet normal 0 0 1
    outer loop
      vertex 0.005 0.1 -0.02
      vertex 0.005 0 -0.02
      vertex 0.095 0 -0.02
    endloop
  endfacet
  facet normal 0 -1 0
    outer loop
      vertex 0.2 0 0
      vertex 0.105 0 0
      vertex 0.2 0 -0.05
    endloop
  endfacet
  facet normal 0 -1 0
    outer loop
      vertex 0.105 0 0
      vertex 0.1 0 -0.005
      vertex 0.2 0 -0.05
    endloop
  endfacet
  facet normal 0 -1 0
    outer loop
      vertex 0 0 -0.015
      vertex 0 0 -0.005
      vertex -0.1 0 -0.05
    endloop
  endfacet
  facet normal 0 -1 0
    outer loop
      vertex 0 0 -0.005
      vertex -0.005 0 0
      vertex -0.1 0 -0.05
    endloop
  endfacet
  facet normal 0 -1 0
    outer loop
      vertex -0.1 0 -0.05
      vertex -0.005 0 0
      vertex -0.1 0 0
    endloop
  endfacet
  facet normal 0 -1 0
    outer loop
      vertex 0.1 0 -0.005
      vertex 0.1 0 -0.015
      vertex 0.2 0 -0.05
    endloop
  endfacet
  facet normal 0 -1 0
    outer loop
      vertex 0.1 0 -0.015
      vertex 0.095 0 -0.02
      vertex 0.2 0 -0.05
    endloop
  endfacet
  facet normal 0 -1 0
    outer loop
      vertex 0.2 0 -0.05
      vertex 0.095 0 -0.02
      vertex -0.1 0 -0.05
    endloop
  endfacet
  facet normal 0 -1 0
    outer loop
      vertex 0.095 0 -0.02
      vertex 0.005 0 -0.02
      vertex -0.1 0 -0.05
    endloop
  endfacet
  facet normal 0 -1 0
    outer loop
      vertex -0.1 0 -0.05
      vertex 0.005 0 -0.02
      vertex 0 0 -0.015
    endloop
  endfacet
  facet normal -1 0 0
    outer loop
      vertex -0.1 0.1 0
      vertex -0.1 0.1 -0.05
      vertex -0.1 0 0
    endloop
  endfacet
  facet normal -1 0 0
    outer loop
      vertex -0.1 0.1 -0.05
      vertex -0.1 0 -0.05
      vertex -0.1 0 0
    endloop
  endfacet
  facet normal 0 0 1
    outer loop
      vertex -0.005 0.1 0
      vertex -0.1 0.1 0
      vertex -0.005 0 0
    endloop
  endfacet
  facet normal 0 0 1
    outer loop
      vertex -0.1 0.1 0
      vertex -0.1 0 0
      vertex -0.005 0 0
    endloop
  endfacet
  facet normal 0 0 -1
    outer loop
      vertex -0.1 0.1 -0.05
      vertex 0.2 0.1 -0.05
      vertex -0.1 0 -0.05
    endloop
  endfacet
  facet normal 0 0 -1
    outer loop
      vertex 0.2 0.1 -0.05
      vertex 0.2 0 -0.05
      vertex -0.1 0 -0.05
    endloop
  endfacet
  facet normal 0 1 0
    outer loop
      vertex 0 0.1 -0.005
      vertex 0 0.1 -0.015
      vertex -0.005 0.1 0
    endloop
  endfacet
  facet normal 0 1 0
    outer loop
      vertex 0 0.1 -0.015
      vertex -0.1 0.1 -0.05
      vertex -0.005 0.1 0
    endloop
  endfacet
  facet normal 0 1 0
    outer loop
      vertex -0.005 0.1 0
      vertex -0.1 0.1 -0.05
      vertex -0.1 0.1 0
    endloop
  endfacet
  facet normal 0 1 0
    outer loop
      vertex 0.105 0.1 0
      vertex 0.2 0.1 0
      vertex 0.1 0.1 -0.005
    endloop
  endfacet
  facet normal 0 1 0
    outer loop
      vertex 0.2 0.1 0
      vertex 0.2 0.1 -0.05
      vertex 0.1 0.1 -0.005
    endloop
  endfacet
  facet normal 0 1 0
    outer loop
      vertex 0 0.1 -0.015
      vertex 0.005 0.1 -0.02
      vertex -0.1 0.1 -0.05
    endloop
  endfacet
  facet normal 0 1 0
    outer loop
      vertex 0.005 0.1 -0.02
      vertex 0.095 0.1 -0.02
      vertex -0.1 0.1 -0.05
    endloop
  endfacet
  facet normal 0 1 0
    outer loop
      vertex -0.1 0.1 -0.05
      vertex 0.095 0.1 -0.02
      vertex 0.2 0.1 -0.05
    endloop
  endfacet
  facet normal 0 1 0
    outer loop
      vertex 0.095 0.1 -0.02
      vertex 0.1 0.1 -0.015
      vertex 0.2 0.1 -0.05
    endloop
  endfacet
  facet normal 0 1 0
    outer loop
      vertex 0.2 0.1 -0.05
      vertex 0.1 0.1 -0.015
      vertex 0.1 0.1 -0.005
    endloop
  endfacet
  facet normal 1 0 0
    outer loop
      vertex 0.2 0.1 -0.05
      vertex 0.2 0.1 0
      vertex 0.2 0 -0.05
    endloop
  endfacet
  facet normal 1 0 0
    outer loop
      vertex 0.2 0.1 0
      vertex 0.2 0 0
      vertex 0.2 0 -0.05
    endloop
  endfacet
  facet normal 0 0 1
    outer loop
      vertex 0.105 0 0
      vertex 0.2 0 0
      vertex 0.105 0.1 0
    endloop
  endfacet
  facet normal 0 0 1
    outer loop
      vertex 0.2 0 0
      vertex 0.2 0.1 0
      vertex 0.105 0.1 0
    endloop
  endfacet
  facet normal -1 0 0
    outer loop
      vertex 0.1 0 -0.015
      vertex 0.1 0 -0.005
      vertex 0.1 0.1 -0.015
    endloop
  endfacet
  facet normal -1 0 0
    outer loop
      vertex 0.1 0 -0.005
      vertex 0.1 0.1 -0.005
      vertex 0.1 0.1 -0.015
    endloop
  endfacet
endsolid Mesh
